<svg width="21" height="24" viewBox="0 0 21 24" fill="none" xmlns="http://www.w3.org/2000/svg">
<path d="M8.99995 0C7.34996 0 5.99997 1.34999 5.99997 2.99998H2.99998C1.34999 2.99998 0 4.34998 0 5.99997H20.9999C20.9999 4.34998 19.6499 2.99998 17.9999 2.99998H14.9999C14.9999 1.34999 13.6499 0 11.9999 0H8.99995ZM2.99998 8.99995V23.4299C2.99998 23.7599 3.23998 23.9999 3.56998 23.9999H17.4599C17.7899 23.9999 18.0299 23.7599 18.0299 23.4299V8.99995H15.0299V19.4999C15.0299 20.3399 14.3699 20.9999 13.5299 20.9999C12.6899 20.9999 12.0299 20.3399 12.0299 19.4999V8.99995H9.02995V19.4999C9.02995 20.3399 8.36995 20.9999 7.52996 20.9999C6.68996 20.9999 6.02997 20.3399 6.02997 19.4999V8.99995H3.02998H2.99998Z" fill="white"/>
</svg>
